<?xml version="1.0" encoding="utf-8"?>
<!-- Generator: Adobe Illustrator 12.0.0, SVG Export Plug-In . SVG Version: 6.00 Build 51448)  -->
<!DOCTYPE svg PUBLIC "-//W3C//DTD SVG 1.1//EN" "http://www.w3.org/Graphics/SVG/1.1/DTD/svg11.dtd" [
	<!ENTITY ns_svg "http://www.w3.org/2000/svg">
	<!ENTITY ns_xlink "http://www.w3.org/1999/xlink">
]>
<svg  version="1.1" id="Layer_1" xmlns="&ns_svg;" xmlns:xlink="&ns_xlink;" width="147" height="147"
	 viewBox="28.386 1.317 147 147" overflow="visible" enable-background="new 28.386 1.317 147 147" xml:space="preserve" style="-webkit-filter: drop-shadow( 0px 0px 5px rgba(0, 0, 0, .7)); filter: drop-shadow( 0px 0px 5px rgba(0, 0, 0, .7));">
<g>
	<g>
		<g>
			
			<linearGradient id="balk_3_" gradientUnits="userSpaceOnUse" x1="125.5657" y1="634.8547" x2="105.6487" y2="654.7717" gradientTransform="matrix(-4.371139e-008 -1 1 -4.371139e-008 -557.2045 174.0939)">
				<stop offset="0" style="stop-color:#6d6d6d"/>
				<stop offset="1" style="stop-color:#5d5d5d"/>
			</linearGradient>
			<polygon id="balk" fill="url(#balk_3_)" points="167.538,-1.528 27.589,138.418 7.674,118.503 147.621,-21.445"/>
			<g id="letters">
				<path fill="#FFFFFF" d="M47.906,91.107c-0.516-0.518-0.888-0.858-1.115-1.026l3.66-3.66l1.272,1.271
					c-0.19,0.145-0.482,0.414-0.879,0.811l-1.38,1.38l1.778,1.779l1.152-1.152c0.349-0.35,0.597-0.619,0.741-0.809l1.25,1.25
					c-0.176,0.129-0.41,0.342-0.706,0.638l-1.256,1.255l2.388,2.388c0.448,0.448,0.803,0.772,1.061,0.973l-1.48,1.479
					c-0.19-0.25-0.532-0.623-1.026-1.116L47.906,91.107z"/>
				<path fill="#FFFFFF" d="M60.76,91.469c-0.729,0.73-1.531,1.024-2.406,0.88c-0.76-0.137-1.522-0.588-2.29-1.354
					c-1.716-1.716-1.871-3.278-0.463-4.687c1.392-1.392,2.944-1.229,4.661,0.487c0.76,0.759,1.207,1.52,1.345,2.278
					C61.765,89.949,61.482,90.747,60.76,91.469z M56.704,87.437c-0.349,0.351-0.413,0.747-0.19,1.195
					c0.121,0.258,0.405,0.611,0.854,1.06c0.448,0.447,0.801,0.732,1.061,0.854c0.447,0.22,0.847,0.157,1.193-0.192
					c0.349-0.349,0.416-0.741,0.204-1.183c-0.122-0.258-0.411-0.615-0.866-1.071c-0.447-0.446-0.801-0.731-1.06-0.854
					C57.45,87.026,57.054,87.088,56.704,87.437z"/>
				<path fill="#FFFFFF" d="M63.537,88.537c-0.13-0.174-0.376-0.444-0.741-0.811l-3.544-3.544c-0.355-0.355-0.613-0.593-0.772-0.708
					l1.249-1.248l0.341,0.346c-0.038-0.492,0.102-0.898,0.42-1.217c0.136-0.137,0.313-0.254,0.531-0.354l1.29,1.29
					c-0.335,0.059-0.583,0.167-0.741,0.327c-0.212,0.212-0.333,0.553-0.362,1.021l2.771,2.771c0.388,0.388,0.68,0.658,0.876,0.811
					L63.537,88.537z"/>
				<path fill="#FFFFFF" d="M66.82,85.254c-0.13-0.174-0.376-0.444-0.741-0.809l-6.086-6.086c-0.356-0.357-0.615-0.595-0.773-0.708
					l1.293-1.293c0.122,0.167,0.351,0.417,0.685,0.752l3.202,3.201l-0.249-1.801c-0.03-0.258-0.08-0.475-0.148-0.647l1.472-1.474
					l0.432,3.488l4.822,1.469l-1.334,1.334c-0.146-0.083-0.427-0.188-0.846-0.317l-3.055-0.957l1.744,1.744
					c0.388,0.388,0.68,0.656,0.876,0.81L66.82,85.254z"/>
				<path fill="#FFFFFF" d="M72.192,70.631c0.068-0.691,0.365-1.301,0.89-1.825c0.595-0.594,1.311-0.775,2.146-0.549
					c0.684,0.196,1.367,0.637,2.052,1.32l1.561,1.562c0.519,0.519,0.882,0.854,1.094,1.004l-1.359,1.359
					c-0.207-0.28-0.545-0.656-1.017-1.128l-1.54-1.54c-0.836-0.836-1.482-1.027-1.938-0.573c-0.31,0.312-0.479,0.603-0.51,0.874
					c0.388,0.252,0.78,0.575,1.175,0.971l1.563,1.563c0.517,0.518,0.881,0.853,1.093,1.005l-1.37,1.37
					c-0.207-0.28-0.545-0.656-1.017-1.127l-1.529-1.551c-0.479-0.479-0.852-0.766-1.117-0.856c-0.266-0.092-0.516-0.021-0.75,0.214
					c-0.227,0.229-0.343,0.55-0.35,0.967l2.84,2.841c0.129,0.129,0.281,0.271,0.456,0.423c0.174,0.15,0.271,0.24,0.296,0.263
					l-1.326,1.326c-0.105-0.152-0.335-0.402-0.684-0.752l-3.558-3.555c-0.409-0.411-0.687-0.666-0.831-0.767l1.271-1.249
					l0.356,0.371c0.069-0.6,0.253-1.048,0.55-1.344C71.088,70.799,71.607,70.593,72.192,70.631z"/>
				<path fill="#FFFFFF" d="M82.379,65.408l-2.528,2.528c0.79,0.669,1.516,0.674,2.177,0.013c0.433-0.435,0.702-0.923,0.808-1.473
					l1.219,1.221c-0.281,0.631-0.602,1.125-0.957,1.48c-0.754,0.753-1.592,1.081-2.511,0.982c-0.874-0.083-1.713-0.526-2.518-1.332
					c-0.684-0.685-1.096-1.424-1.24-2.221c-0.15-0.884,0.092-1.643,0.731-2.279c0.624-0.624,1.313-0.893,2.074-0.8
					c0.715,0.091,1.404,0.471,2.072,1.139C81.964,64.926,82.19,65.173,82.379,65.408z M78.646,65.341
					c-0.441,0.441-0.392,0.964,0.154,1.569l1.402-1.403C79.614,64.948,79.095,64.893,78.646,65.341z"/>
				<path fill="#FFFFFF" d="M89.562,62.667c-0.73,0.729-1.532,1.022-2.407,0.88c-0.759-0.137-1.522-0.588-2.29-1.354
					c-1.716-1.719-1.871-3.278-0.463-4.688c1.392-1.392,2.946-1.229,4.662,0.486c0.759,0.76,1.207,1.52,1.344,2.277
					C90.567,61.146,90.284,61.946,89.562,62.667z M85.507,58.635c-0.35,0.351-0.412,0.746-0.191,1.194
					c0.122,0.259,0.407,0.61,0.854,1.06c0.448,0.449,0.803,0.733,1.061,0.854c0.447,0.221,0.846,0.157,1.194-0.191
					c0.35-0.35,0.415-0.743,0.203-1.184c-0.122-0.259-0.41-0.615-0.866-1.07c-0.447-0.448-0.802-0.732-1.06-0.854
					C86.252,58.223,85.856,58.286,85.507,58.635z"/>
				<path fill="#FFFFFF" d="M89.599,52.268c0.606-0.624,1.349-0.833,2.222-0.628c0.737,0.176,1.443,0.602,2.12,1.275l1.562,1.562
					c0.518,0.518,0.881,0.853,1.093,1.005l-1.369,1.369c-0.152-0.195-0.495-0.567-1.028-1.114l-1.527-1.553
					c-0.852-0.865-1.555-1.021-2.105-0.471c-0.25,0.25-0.382,0.633-0.396,1.149l2.807,2.805c0.13,0.13,0.279,0.271,0.457,0.423
					c0.174,0.152,0.271,0.24,0.295,0.263l-1.325,1.326c-0.107-0.149-0.335-0.399-0.687-0.751l-3.5-3.499
					c-0.438-0.438-0.731-0.711-0.876-0.811l1.262-1.261l0.408,0.411C89.042,53.126,89.24,52.624,89.599,52.268z"/>
				<path fill="#FFFFFF" d="M103.262,47.535c0.082,0.28,0.062,0.627-0.063,1.037c-0.152,0.501-0.44,0.965-0.866,1.39
					c-1.886,1.886-4.146,1.509-6.783-1.13c-1.255-1.254-1.945-2.479-2.074-3.671c-0.129-1.194,0.321-2.31,1.356-3.343
					c0.594-0.595,1.296-0.916,2.109-0.971l1.299,1.301c-0.908,0.064-1.632,0.366-2.172,0.906c-1.119,1.119-0.791,2.565,0.983,4.34
					c1.798,1.8,3.147,2.244,4.055,1.341c0.736-0.737,0.649-1.563-0.263-2.476c-0.084-0.099-0.389-0.388-0.91-0.867L101.325,44
					c0.298,0.354,0.645,0.732,1.039,1.127l1.321,1.322c0.213,0.212,0.416,0.4,0.613,0.567c0.196,0.168,0.329,0.286,0.397,0.354
					c-0.038,0.066-0.118,0.146-0.239,0.239L103.262,47.535z"/>
				<path fill="#FFFFFF" d="M105.659,46.415c-0.138-0.167-0.388-0.434-0.753-0.797l-3.545-3.545
					c-0.356-0.357-0.611-0.599-0.763-0.721l1.28-1.279c0.13,0.157,0.361,0.403,0.695,0.738l3.499,3.498
					c0.388,0.39,0.677,0.661,0.865,0.821L105.659,46.415z M100.367,39.821c-0.22,0.219-0.49,0.32-0.813,0.312
					c-0.321-0.013-0.599-0.133-0.825-0.361c-0.236-0.234-0.359-0.516-0.373-0.838c-0.013-0.322,0.092-0.595,0.313-0.813
					c0.211-0.212,0.479-0.313,0.805-0.301c0.32,0.014,0.602,0.137,0.838,0.372c0.229,0.229,0.348,0.505,0.359,0.825
					C100.679,39.34,100.578,39.607,100.367,39.821z"/>
				<path fill="#FFFFFF" d="M104.313,37.641l0.982-0.981l1.104,1.104c-0.037,0.037-0.111,0.104-0.222,0.198
					c-0.109,0.094-0.209,0.187-0.301,0.276l-0.483,0.484l2.12,2.12c0.51,0.509,0.931,0.598,1.265,0.265
					c0.235-0.235,0.382-0.514,0.44-0.834l1.141,1.141c-0.13,0.434-0.394,0.848-0.788,1.243c-0.556,0.557-1.138,0.742-1.746,0.562
					c-0.455-0.137-1.003-0.522-1.641-1.162l-2.039-2.039l0.011-0.011l-0.021-0.022l-0.184,0.161c-0.1,0.102-0.219,0.241-0.356,0.427
					l-1.104-1.105l0.563-0.563l-0.445-0.446c-0.214-0.214-0.396-0.374-0.549-0.482l1.326-1.326c0.122,0.169,0.273,0.345,0.458,0.526
					L104.313,37.641z"/>
				<path fill="#FFFFFF" d="M111.484,31.287l0.377-0.376l1.248,1.248l-0.376,0.377l2.604,2.604c0.356,0.357,0.639,0.608,0.843,0.753
					l-1.492,1.491c-0.168-0.226-0.441-0.529-0.82-0.909l-2.538-2.538l-2.077,2.077l2.526,2.527c0.41,0.409,0.717,0.688,0.921,0.832
					l-1.479,1.479c-0.152-0.212-0.403-0.49-0.754-0.842l-6.007-6.006c-0.35-0.35-0.631-0.601-0.842-0.754l1.48-1.48
					c0.159,0.222,0.411,0.5,0.753,0.844l2.151,2.15l2.076-2.077l-1.993-1.991c-0.463-0.463-0.797-0.769-1.001-0.912l1.492-1.492
					c0.139,0.197,0.354,0.443,0.65,0.739L111.484,31.287z"/>
				<path fill="#FFFFFF" d="M119.115,33.048c-0.599,0.6-1.309,0.775-2.128,0.532c-0.66-0.206-1.34-0.658-2.039-1.356l-1.562-1.562
					c-0.518-0.519-0.881-0.854-1.094-1.004l1.37-1.37c0.146,0.188,0.488,0.562,1.027,1.116l1.528,1.551
					c0.435,0.434,0.795,0.696,1.082,0.788c0.35,0.123,0.675,0.033,0.976-0.27c0.212-0.212,0.323-0.572,0.336-1.089l-2.806-2.805
					c-0.13-0.13-0.285-0.271-0.468-0.423c-0.183-0.153-0.279-0.236-0.297-0.252l1.326-1.326c0.114,0.144,0.348,0.391,0.696,0.74
					l3.486,3.485c0.447,0.449,0.739,0.728,0.877,0.833l-1.249,1.249l-0.407-0.412C119.73,32.13,119.509,32.655,119.115,33.048z"/>
				<path fill="#FFFFFF" d="M124.74,27.401c-0.411,0.41-0.902,0.605-1.472,0.586l0.409,0.408l-1.203,1.204
					c-0.107-0.149-0.336-0.399-0.688-0.751l-6.027-6.027c-0.447-0.447-0.743-0.724-0.889-0.821l1.293-1.293
					c0.121,0.152,0.399,0.444,0.832,0.877l1.99,1.976c0.131-0.567,0.363-1.021,0.697-1.354c0.602-0.604,1.339-0.81,2.213-0.618
					c0.752,0.175,1.46,0.592,2.12,1.253c0.676,0.676,1.11,1.417,1.309,2.223C125.545,26.01,125.351,26.79,124.74,27.401z
					 M120.635,23.639c-0.252,0.252-0.391,0.643-0.412,1.167l1.976,1.979c0.479-0.01,0.839-0.131,1.075-0.367
					c0.299-0.299,0.357-0.688,0.185-1.167c-0.136-0.381-0.384-0.75-0.741-1.108C121.855,23.281,121.161,23.114,120.635,23.639z"/>
			</g>
			<g opacity="0.5">
				<line fill="none" stroke="#FFFFFF" stroke-dasharray="3 1.5" x1="19.705" y1="143.389" x2="174.08" y2="-10.986"/>
				<line fill="none" stroke="#FFFFFF" stroke-dasharray="3 1.5" x1="1.58" y1="127.514" x2="155.955" y2="-26.861"/>
			</g>
		</g>
	</g>
</g>
</svg>
